<svg xmlns="http://www.w3.org/2000/svg" viewBox="0 0 60 60">

	<path d="M30 34c-3-2-14-3-19-10s0-14 5-16 11 2 14 8v18z" fill="#a288e3" stroke="#ffffff" stroke-width="0.8"/>
	<path d="M30 34c3-2 14-3 19-10s0-14-5-16-11 2-14 8v18z" fill="#8a6ad6" stroke="#ffffff" stroke-width="0.8"/>

	<path d="M16 18c3 2 6 5 9 10M17 19c2 3 4 6 7 9M45 18c-3 2-6 5-9 10M44 19c-2 3-4 6-7 9" stroke="#ffffff" stroke-width="0.6" fill="none" opacity="0.8"/>

	<path d="M26 32c-2 4-11 8-15 6s-5-8-3-12 8-6 13-3l5 9z" fill="#bb9af0" stroke="#ffffff" stroke-width="0.8"/>
	<path d="M34 32c2 4 11 8 15 6s5-8 3-12-8-6-13-3l-5 9z" fill="#9370db" stroke="#ffffff" stroke-width="0.8"/>

	<path d="M20 20c1 1 2 3 3 4M40 20c-1 1-2 3-3 4M23 25c1 1 2 2 3 3M37 25c-1 1-2 2-3 3" stroke="#ffffff" stroke-width="0.7" stroke-linecap="round" opacity="0.9"/>

	<path d="M30 14c-1.5 0-2.5 0.5-2.5 0.5c-1 1-1.5 2-1.5 5.5v15c0 3 1 4.5 2 5.5c0 0 1 0.5 2 0.5s2-0.5 2-0.5c1-1 2-2.5 2-5.5V20c0-3.5-0.5-4.5-1.5-5.5C32.5 14.5 31.5 14 30 14z" fill="#ffffff"/>

	<path d="M28 18h4M28 22h4M28 26h4M28 30h4M28 34h4M28 38h4" stroke="#1e1e2d" stroke-width="0.8"/>

	<path d="M28 16c-2-3-4-4-4-4M32 16c2-3 4-4 4-4" stroke="#ffffff" stroke-width="1.2" stroke-linecap="round"/>

	<circle cx="24" cy="12" r="1.2" fill="#ffffff"/>
	<circle cx="36" cy="12" r="1.2" fill="#ffffff"/>
</svg>